#!OML:ASF F:\VICON\USERDATA\INSTALL\rory3\rory3.ASF
:FULLY-SPECIFIED
:DEGREES
4407
root 7.40276 18.2666 7.2264 175.835 216.162 -533.203
lowerback 11.3225 1.90219 -1.7354
upperback 2.93017 2.2444 -0.913371
thorax -3.31229 1.10445 -0.284997
lowerneck -15.4422 10.751 -6.54395
upperneck 47.2791 17.8908 3.31314
head 20.2465 5.95654 6.24671
rclavicle -5.13858e-014 2.0276e-014
rhumerus -36.8376 -13.5267 -77.6215
rradius 37.9352
rwrist 3.77398
rhand -12.4479 3.93981
rfingers 7.12502
rthumb 13.6253 -25.5943
lclavicle -5.13858e-014 2.0276e-014
lhumerus -25.4149 -4.63142 87.21
lradius 38.7963
lwrist -4.4895
lhand -18.4014 26.8632
lfingers 7.12502
lthumb 7.88291 56.6962
rfemur -24.6172 -9.72881 13.3389
rtibia 44.5012
rfoot -8.08225 -5.28972
rtoes -3.28868
lfemur -0.305183 -4.90242 -22.0647
ltibia 19.2486
lfoot -2.792 -16.5487
ltoes -10.5254
4408
root 7.46975 18.2784 7.16796 175.799 215.722 -533.192
lowerback 11.3517 1.94426 -1.83258
upperback 2.89267 2.28631 -0.961826
thorax -3.36952 1.12631 -0.288604
lowerneck -15.3846 10.7354 -6.50295
upperneck 47.256 17.8539 3.32069
head 20.2207 5.95944 6.23086
rclavicle -7.2954e-014 5.96354e-015
rhumerus -36.7571 -13.3124 -77.9109
rradius 38.1506
rwrist 3.88584
rhand -12.3362 4.35648
rfingers 7.12502
rthumb 13.733 -25.1703
lclavicle -7.2954e-014 5.96354e-015
lhumerus -25.7369 -4.1286 86.6613
lradius 38.5242
lwrist -4.47109
lhand -17.3825 27.6834
lfingers 7.12502
lthumb 8.86622 57.4771
rfemur -24.3646 -10.1433 13.4149
rtibia 46.1071
rfoot -8.12863 -4.99222
rtoes -3.38632
lfemur -0.760042 -4.96685 -22.117
ltibia 19.4491
lfoot -2.47697 -16.9755
ltoes -10.3169
4409
root 7.53167 18.2892 7.1149 175.71 215.297 -533.247
lowerback 11.3841 1.99218 -1.83556
upperback 2.87732 2.3465 -1.01615
thorax -3.4017 1.15645 -0.353415
lowerneck -15.2491 10.6763 -6.48182
upperneck 47.1821 17.7369 3.32294
head 20.1419 5.93664 6.1874
rclavicle -2.95195e-014 -3.97569e-016
rhumerus -36.7373 -13.104 -78.2586
rradius 38.3244
rwrist 3.88453
rhand -12.3855 4.9936
rfingers 7.12502
rthumb 13.6855 -24.5364
lclavicle -2.95195e-014 -3.97569e-016
lhumerus -25.9351 -4.1841 86.087
lradius 38.155
lwrist -3.66497
lhand -16.7615 28.3537
lfingers 7.12502
lthumb 9.46549 58.1211
rfemur -23.9092 -10.4387 13.4956
rtibia 47.6436
rfoot -8.28648 -4.55775
rtoes -3.44383
lfemur -1.05207 -5.00749 -22.1275
ltibia 19.6273
lfoot -2.13681 -17.3112
ltoes -9.74346
4410
root 7.59358 18.2999 7.05823 175.732 214.93 -533.413
lowerback 11.3252 2.05401 -1.71921
upperback 2.88838 2.44216 -1.0652
thorax -3.35173 1.20325 -0.480698
lowerneck -15.2039 10.5894 -6.4336
upperneck 47.1396 17.5842 3.32581
head 20.1188 5.89504 6.14929
rclavicle 9.651e-014 -4.37326e-015
rhumerus -36.7701 -12.9505 -78.5939
rradius 38.6472
rwrist 3.77802
rhand -12.337 5.54285
rfingers 7.12502
rthumb 13.7323 -23.984
lclavicle 9.651e-014 -4.37326e-015
lhumerus -26.1253 -3.95465 85.4609
lradius 37.765
lwrist -3.20136
lhand -16.5945 28.3039
lfingers 7.12502
lthumb 9.62662 58.0639
rfemur -23.5289 -10.727 13.7004
rtibia 49.1375
rfoot -8.37208 -4.10265
rtoes -1.67291
lfemur -1.36987 -5.0715 -22.0297
ltibia 19.7371
lfoot -1.61886 -17.516
ltoes -8.37864
4411
root 7.65389 18.3148 6.99695 175.836 214.553 -533.523
lowerback 11.1745 2.14954 -1.68174
upperback 2.92163 2.57583 -1.12239
thorax -3.23082 1.26923 -0.573043
lowerneck -15.4604 10.493 -6.3555
upperneck 47.296 17.4475 3.40507
head 20.3119 5.83724 6.20325
rclavicle -7.67309e-014 9.54166e-015
rhumerus -36.7073 -12.9342 -78.8929
rradius 38.9752
rwrist 3.70569
rhand -12.3135 5.86911
rfingers 7.12502
rthumb 13.7548 -23.6562
lclavicle -7.67309e-014 9.54166e-015
lhumerus -26.3077 -3.53209 84.8581
lradius 37.4056
lwrist -3.27513
lhand -16.643 28.1914
lfingers 7.12502
lthumb 9.57983 57.9536
rfemur -23.2508 -10.9694 13.8922
rtibia 50.5791
rfoot -8.3482 -3.71887
rtoes -0.9927
lfemur -1.82872 -5.17198 -21.9599
ltibia 19.8344
lfoot -1.29183 -17.5137
ltoes -8.26691
4412
root 7.7074 18.3228 6.93192 175.798 214.158 -533.202
lowerback 10.9718 2.26705 -2.16212
upperback 2.87191 2.68121 -1.19563
thorax -3.18981 1.32436 -0.38769
lowerneck -15.4913 10.4222 -6.39701
upperneck 47.3776 17.3502 3.4781
head 20.3679 5.7962 6.24213
rclavicle -1.32192e-014 1.59028e-015
rhumerus -36.4988 -12.9265 -79.1111
rradius 39.0472
rwrist 3.78165
rhand -12.1456 6.08566
rfingers 7.12502
rthumb 13.9167 -23.4286
lclavicle -1.32192e-014 1.59028e-015
lhumerus -26.6702 -2.93159 84.3361
lradius 37.2132
lwrist -3.46501
lhand -16.7673 28.39
lfingers 7.12502
lthumb 9.45991 58.1576
rfemur -23.0311 -11.0762 13.7295
rtibia 51.9251
rfoot -8.32925 -3.28662
rtoes -4.21052
lfemur -2.43862 -5.23597 -22.2548
ltibia 20.0279
lfoot -0.908729 -17.5851
ltoes -7.81906
4413
root 7.76114 18.3262 6.86887 175.719 213.775 -532.928
lowerback 10.906 2.33531 -2.58107
upperback 2.7551 2.72431 -1.25081
thorax -3.29215 1.34958 -0.216953
lowerneck -15.2117 10.4294 -6.48212
upperneck 47.2331 17.3489 3.47172
head 20.1722 5.81756 6.20227
rclavicle -4.1546e-014 -1.78906e-014
rhumerus -36.2599 -12.766 -79.3558
rradius 38.9459
rwrist 3.84445
rhand -12.0964 6.13878
rfingers 7.12502
rthumb 13.9641 -23.3723
lclavicle -4.1546e-014 -1.78906e-014
lhumerus -27.3646 -2.22674 83.8039
lradius 37.3535
lwrist -3.37641
lhand -16.9993 28.6431
lfingers 7.12502
lthumb 9.23604 58.4208
rfemur -22.7041 -11.2012 13.5797
rtibia 53.2203
rfoot -8.25928 -2.71305
rtoes -6.27627
lfemur -2.93778 -5.13544 -22.513
ltibia 20.1425
lfoot 0.00074859 -18.0836
ltoes -5.05462
4414
root 7.82342 18.3359 6.81213 175.903 213.452 -533.683
lowerback 11.1139 2.33421 -1.87944
upperback 2.75767 2.79767 -1.18447
thorax -3.37538 1.38243 -0.559611
lowerneck -15.2284 10.4105 -6.48316
upperneck 47.2324 17.291 3.57323
head 20.1593 5.8138 6.24228
rclavicle 2.61899e-014 1.94809e-014
rhumerus -35.9399 -12.6036 -79.7637
rradius 38.8668
rwrist 3.77874
rhand -12.1933 5.8965
rfingers 7.12502
rthumb 13.8707 -23.621
lclavicle 2.61899e-014 1.94809e-014
lhumerus -27.9743 -1.86741 83.227
lradius 37.4811
lwrist -2.82382
lhand -18.0546 28.8478
lfingers 7.12502
lthumb 8.21767 58.668
rfemur -21.8548 -11.2103 14.3135
rtibia 54.2899
rfoot -8.24013 -2.35687
rtoes -2.58184
lfemur -3.11219 -5.13675 -21.8738
ltibia 20.3228
lfoot 0.601398 -18.4292
ltoes -3.64002
4415
root 7.87619 18.342 6.74937 175.859 212.848 -533.132
lowerback 10.8225 2.36483 -2.41655
upperback 2.66235 2.77845 -1.41193
thorax -3.32803 1.37689 -0.482502
lowerneck -15.2332 10.373 -6.43754
upperneck 47.1667 17.2048 3.61671
head 20.1186 5.80582 6.23602
rclavicle -5.76972e-014 3.18055e-015
rhumerus -35.671 -12.3777 -80.2364
rradius 38.8859
rwrist 3.68767
rhand -12.4521 5.62996
rfingers 7.12502
rthumb 13.6213 -23.9044
lclavicle -5.76972e-014 3.18055e-015
lhumerus -28.2625 -1.90859 82.7065
lradius 37.0951
lwrist -2.19687
lhand -19.8059 28.6873
lfingers 7.12502
lthumb 6.52719 58.5667
rfemur -21.5064 -11.4829 13.8386
rtibia 55.2936
rfoot -8.22238 -1.70346
rtoes 0.375696
lfemur -3.86094 -5.30987 -22.4189
ltibia 20.5571
lfoot 0.873435 -18.639
ltoes -3.82233
4416
root 7.92903 18.3496 6.68717 176.004 212.393 -533.535
lowerback 10.9458 2.41395 -2.13394
upperback 2.58385 2.8711 -1.39057
thorax -3.46613 1.42236 -0.638919
lowerneck -15.0774 10.3022 -6.43001
upperneck 47.0444 17.055 3.647
head 19.9955 5.77993 6.1944
rclavicle -1.16786e-013 1.70955e-014
rhumerus -35.7571 -12.0906 -80.5648
rradius 39.1255
rwrist 3.77689
rhand -12.7404 5.61633
rfingers 7.12502
rthumb 13.3434 -23.9364
lclavicle -1.16786e-013 1.70955e-014
lhumerus -28.5726 -2.17509 82.2675
lradius 36.5616
lwrist -1.74823
lhand -20.7372 28.52
lfingers 7.12502
lthumb 5.62807 58.4253
rfemur -20.6951 -11.4177 14.2702
rtibia 56.0321
rfoot -8.00197 -0.990291
rtoes -3.57005
lfemur -4.25922 -5.26244 -22.0596
ltibia 20.8058
lfoot 1.01416 -19.0194
ltoes -4.78562
4417
root 7.98061 18.3548 6.62344 176.103 211.927 -534.041
lowerback 11.1387 2.46724 -1.77893
upperback 2.5956 2.98014 -1.30094
thorax -3.54758 1.47416 -0.768228
lowerneck -15.1859 10.2052 -6.52544
upperneck 47.083 16.9408 3.72784
head 20.0362 5.72724 6.24536
rclavicle 2.37051e-014 5.96354e-015
rhumerus -35.879 -11.7152 -80.7808
rradius 39.5125
rwrist 3.65943
rhand -12.8522 5.79654
rfingers 7.12502
rthumb 13.2357 -23.7633
lclavicle 2.37051e-014 5.96354e-015
lhumerus -28.8212 -2.26029 81.8555
lradius 36.1963
lwrist -1.59978
lhand -20.6992 28.8262
lfingers 7.12502
lthumb 5.66478 58.7305
rfemur -19.7622 -11.2365 14.8458
rtibia 56.6501
rfoot -7.75713 -0.38124
rtoes -8.29554
lfemur -4.50518 -5.16076 -21.6069
ltibia 20.941
lfoot 0.963659 -19.5718
ltoes -7.62848
4418
root 8.03058 18.362 6.56027 176.106 211.418 -534.106
lowerback 11.0842 2.51726 -1.76032
upperback 2.64158 3.04986 -1.33306
thorax -3.4671 1.50844 -0.817789
lowerneck -15.325 10.1285 -6.61978
upperneck 47.0554 16.8687 3.77504
head 20.0426 5.69244 6.28264
rclavicle 5.59082e-014 -1.27222e-014
rhumerus -35.7466 -11.4871 -81.0108
rradius 39.7172
rwrist 3.57131
rhand -12.9502 5.88886
rfingers 7.12502
rthumb 13.1412 -23.677
lclavicle 5.59082e-014 -1.27222e-014
lhumerus -29.0101 -2.24647 81.3844
lradius 35.9389
lwrist -1.54711
lhand -20.7753 28.9188
lfingers 7.12502
lthumb 5.59128 58.825
rfemur -18.8951 -11.0561 14.9979
rtibia 57.102
rfoot -7.52298 0.482246
rtoes -10.6543
lfemur -4.9073 -5.23481 -21.5688
ltibia 21.0962
lfoot 1.12519 -19.8983
ltoes -7.81135
4419
root 8.08134 18.3717 6.4986 176.157 210.918 -534.07
lowerback 10.8854 2.5638 -1.76456
upperback 2.66542 3.11391 -1.43898
thorax -3.32727 1.54035 -0.923761
lowerneck -15.3729 10.067 -6.60133
upperneck 46.9512 16.7642 3.80057
head 19.9903 5.67303 6.2695
rclavicle -2.80783e-014 3.57812e-015
rhumerus -35.5278 -11.3864 -81.3172
rradius 39.8359
rwrist 3.72369
rhand -12.9504 5.86754
rfingers 7.12502
rthumb 13.141 -23.6984
lclavicle -2.80783e-014 3.57812e-015
lhumerus -29.2445 -2.32458 80.8721
lradius 35.774
lwrist -1.5356
lhand -20.7813 28.8764
lfingers 7.12502
lthumb 5.5855 58.7827
rfemur -18.0823 -10.9553 15.0067
rtibia 57.4358
rfoot -7.40521 1.76324
rtoes -12.9288
lfemur -5.37912 -5.43608 -21.617
ltibia 21.1628
lfoot 1.72743 -20.0164
ltoes -4.27176
4420
root 8.13264 18.3746 6.43601 176.274 210.462 -534.182
lowerback 10.7477 2.62563 -1.63471
upperback 2.64419 3.21329 -1.48643
thorax -3.26367 1.58948 -1.05278
lowerneck -15.3669 9.99818 -6.64534
upperneck 46.9129 16.6645 3.84473
head 19.957 5.64331 6.27666
rclavicle -3.52843e-014 1.23246e-014
rhumerus -35.4384 -11.0573 -81.6322
rradius 40.1234
rwrist 3.68057
rhand -13.0003 5.43262
rfingers 7.12502
rthumb 13.0929 -24.1364
lclavicle -3.52843e-014 1.23246e-014
lhumerus -29.6135 -2.22213 80.4353
lradius 35.6327
lwrist -1.88539
lhand -20.8236 28.6
lfingers 7.12502
lthumb 5.54465 58.5075
rfemur -17.2752 -10.7979 15.1815
rtibia 57.6603
rfoot -7.32154 3.26239
rtoes -13.7251
lfemur -5.81076 -5.6055 -21.525
ltibia 21.1923
lfoot 2.18225 -20.0151
ltoes -1.81778
